PathFileType	4	(X/Y/Z)	C:/Users/beibeiliu/ov580/test_trc\sequence.23_training_dense_left.trc
DataRate	CameraRate	NumFrames	NumMarkers	Units	OrigDataRate	OrigDataStartFrame	OrigNumFrames
120	120	15	19	mm	120	109	289
Frame#	Time	ThumbCMC			ThumbMCP			ThumbIP			ThumbTip			IndexMCP			IndexPIP			IndexTip			MiddleMCP			MiddlePIP			MiddleTip			RingMCP			RingPIP			RingTip			PinkyMCP			PinkyPIP			PinkyTip			BackHand1			BackHand2			BackHand3	
		X0	Y0	Z0	X1	Y1	Z1	X2	Y2	Z2	X3	Y3	Z3	X4	Y4	Z4	X5	Y5	Z5	X6	Y6	Z6	X7	Y7	Z7	X8	Y8	Z8	X9	Y9	Z9	X10	Y10	Z10	X11	Y11	Z11	X12	Y12	Z12	X13	Y13	Z13	X14	Y14	Z14	X15	Y15	Z15	X16	Y16	Z16	X17	Y17	Z17	X18	Y18	Z18	
108	0.9	-179.811	19.6397	1.4178	-167.414	-3.43843	-4.85465	-156.058	-19.8288	-14.3564	-146.537	-33.2953	-20.2157	-196.671	-43.2442	-14.2028	-187.133	-50.3042	12.1319	-178.994	-19.2803	17.7502	-210.957	-47.0545	-0.15479	-195.973	-43.1237	25.334	-191.725	-13.3271	21.0187	-228.715	-44.8397	9.92116	-213.141	-45.0261	29.1189	-204.948	-16.4618	25.9733	-254.945	-24.6521	7.19134	-257.712	-49.1956	12.1659	-240.626	-62.6007	18.5453	-232.995	8.29324	-3.46616	-227.043	33.0076	5.20709	-208.205	17.6465	-10.9339	
109	0.908333	-176.888	12.1747	1.94661	-161.322	-8.50525	-3.8419	-157.25	-27.4113	-11.3032	-148.081	-43.9745	-21.1193	-202.836	-45.2817	-12.0359	-194.305	-54.2755	9.5811	-182.554	-28.4041	19.1296	-218.047	-42.5554	-3.68257	-203.34	-49.22	23.7397	-196.878	-19.7295	25.2998	-234.557	-40.581	4.6002	-217.811	-45.7106	25.9004	-208.075	-22.8682	28.9518	-258.031	-15.8383	4.94957	-264.539	-38.8025	2.99922	-260.262	-59.3763	13.6	-229.39	13.7414	-0.547313	-219.325	37.1934	6.60296	-201.425	20.6592	-10.2681	
110	0.916667	-170.223	10.6157	5.37901	-160.736	-16.1958	-3.66348	-158.722	-34.2584	-11.9346	-154.104	-49.7063	-20.5779	-205.876	-44.2988	-15.0031	-200.787	-53.3055	11.0233	-186.757	-31.2138	19.413	-221.393	-43.9003	-4.58619	-211.265	-50.4646	22.3368	-195.9	-19.9129	22.7074	-237.581	-36.4285	0.571774	-225.728	-47.8838	21.4866	-210.417	-24.9365	28.9623	-254.889	-8.97527	2.62104	-269.168	-25.535	-0.529274	-273.298	-46.4348	2.94053	-226.52	16.1704	0.528313	-214.36	37.8763	10.1684	-196.169	19.6762	-9.41278	
111	0.925	-169.876	5.99026	6.31419	-163.019	-16.3605	1.87448	-159.419	-35.1171	-10.3698	-151.999	-50.0952	-19.0632	-207.836	-43.1561	-17.5574	-205.91	-55.4103	6.73659	-190.75	-29.2946	16.3127	-224.059	-42.1747	-8.66409	-217.746	-51.0587	17.8032	-199.534	-22.6921	23.9373	-241.641	-31.7598	-0.218993	-231.816	-46.2583	19.5764	-212.868	-26.9778	27.395	-253.685	-0.434573	4.57551	-271.199	-11.7915	-2.43638	-287.938	-31.8765	-5.58647	-223.346	14.2797	-2.85413	-207.736	36.4602	10.8801	-195.161	20.0458	-5.26129	
112	0.933333	-165.295	2.62899	7.82519	-163.141	-22.388	-0.524831	-161.516	-39.0184	-11.8091	-153.598	-54.7695	-21.4409	-208.29	-41.364	-20.9494	-204.482	-55.3907	4.40661	-190.357	-28.6443	13.5483	-228.463	-34.6273	-10.0108	-218.697	-52.4363	12.4821	-199.748	-28.4166	23.6615	-242.232	-29.9091	-3.48953	-233.368	-44.462	15.335	-212.544	-27.9582	23.8453	-255.171	0.762973	-0.719281	-266.839	-6.67225	-6.74743	-286.631	-17.684	-13.8431	-219.767	19.4259	0.226233	-204.421	34.5376	11.1116	-191.617	18.3689	-7.39227	
113	0.941667	-165.051	-3.51489	5.92163	-163.519	-23.9235	0.143925	-161.299	-42.8657	-13.5814	-156.13	-57.9682	-24.7532	-209.036	-38.7369	-23.5721	-208.927	-53.6439	2.19084	-191.372	-30.6922	12.0496	-230.223	-36.0461	-11.1282	-221.088	-50.8663	9.31281	-199.462	-23.7242	20.6473	-241.884	-27.4647	-8.09918	-233.729	-42.0867	9.8533	-212.188	-24.4392	22.9695	-251.035	6.31639	-1.91329	-269.991	1.25601	-10.4004	-287.358	-3.20771	-19.113	-214.273	18.1254	-5.0325	-201.689	36.7235	13.1368	-185.438	17.3913	-5.14008	
114	0.95	-165.504	-3.09998	10.4696	-166.953	-28.8852	-4.05449	-165.968	-45.2536	-18.0793	-163.068	-58.6564	-26.0521	-210.249	-37.4493	-27.9945	-212.557	-52.7453	-3.30683	-198.307	-33.9067	11.4815	-226.155	-31.542	-18.5082	-223.244	-46.0729	9.04693	-202.076	-31.5239	19.8838	-244.278	-22.3023	-10.7967	-237.574	-38.2111	5.76772	-215.137	-27.5853	19.9201	-245.641	10.7549	-5.73849	-262.758	7.13872	-15.5808	-281.531	7.71325	-22.3373	-210.876	22.2073	-1.20505	-199.58	34.787	12.1386	-184.047	18.7664	-4.54401	
115	0.958333	-167.626	-7.53029	8.91155	-168.81	-28.6909	-0.877652	-167.209	-47.498	-19.5628	-165.126	-59.1106	-29.5679	-210.127	-34.8856	-31.1473	-216.446	-51.877	-6.52601	-198.527	-37.6801	8.60043	-230.309	-26.7691	-20.3672	-228.741	-42.4793	6.08868	-205.893	-31.5257	17.5047	-239.08	-14.8656	-16.4096	-237.034	-36.2022	4.93498	-216.233	-25.6948	16.053	-246.598	17.2619	-10.4371	-261.837	15.4566	-16.5076	-278.094	14.1549	-30.5067	-208.883	22.7579	-4.46004	-191.9	33.7742	11.6628	-178.314	12.5802	-6.03997	
116	0.966667	-166.492	-10.6618	11.2261	-170.74	-33.2672	-7.22256	-169.748	-47.3335	-19.745	-170.725	-59.7474	-35.2891	-212.067	-31.3594	-32.4584	-224.056	-47.3683	-13.254	-202.765	-35.7635	6.6997	-229.994	-21.1027	-24.7788	-232.144	-42.0781	-0.777207	-209.862	-27.1515	16.579	-240.571	-8.67142	-19.4952	-240.826	-31.3693	-1.04775	-221.006	-23.3188	15.4308	-242.668	20.7138	-15.3089	-257.099	23.0343	-20.7387	-272.897	26.0163	-33.038	-201.965	23.3164	-8.582	-189.707	35.5648	11.6362	-174.806	12.9365	-4.89162	
117	0.975	-167.537	-16.2813	11.1602	-170.257	-37.8598	-8.03256	-173.148	-48.0491	-22.1286	-173.645	-59.8722	-36.3675	-215.983	-30.2865	-35.3292	-225.097	-46.3081	-15.0347	-205.728	-34.2943	4.24747	-229.816	-17.428	-28.5769	-238.352	-34.666	-5.6202	-215.609	-26.2877	14.3744	-238.084	-6.93516	-24.6645	-244.802	-25.513	-9.71719	-223.181	-20.852	11.0128	-237.903	26.6099	-14.768	-253.485	28.607	-26.0368	-265.604	34.1895	-40.7065	-200.915	23.2497	-10.2085	-182.432	29.2033	14.5157	-177.198	11.2208	-5.52497	
118	0.983333	-172.203	-17.9681	9.44304	-174.288	-38.133	-10.6623	-177.618	-47.1205	-27.708	-173.42	-63.0103	-39.4214	-213.98	-29.685	-39.9928	-228.225	-43.8789	-19.1159	-210.787	-34.4951	1.0888	-227.307	-16.0454	-32.8686	-238.739	-34.2265	-12.6825	-215.767	-26.2731	10.4596	-241.378	-1.66697	-27.985	-247.96	-19.687	-12.0055	-224.072	-18.27	8.85354	-233.891	30.0871	-18.7863	-246.063	34.2918	-28.823	-256.879	40.2629	-45.5453	-196.948	25.9304	-7.93555	-181.873	29.1019	15.1055	-172.312	5.49177	-2.21966	
119	0.991667	-173.805	-20.6104	8.61011	-173.595	-39.9312	-11.9338	-175.873	-48.9523	-31.6347	-175.674	-60.2537	-45.1484	-209.205	-26.7782	-43.1744	-229.624	-40.8347	-27.8906	-211.732	-34.0316	-2.63451	-228.151	-12.1116	-36.6723	-239.536	-30.5533	-13.6533	-214.644	-25.6233	7.92827	-236.431	2.34327	-33.6992	-244.904	-18.6257	-18.2039	-227.574	-17.4193	3.71376	-229.331	32.7388	-23.8422	-241.677	38.4898	-34.0668	-250.702	44.501	-51.4129	-194.171	25.3874	-11.8768	-181.791	27.6075	13.6947	-171.823	6.74471	-1.65537	
120	1	-172.381	-24.6834	9.73294	-176.817	-36.8221	-10.1108	-177.569	-45.4797	-32.7136	-176.013	-55.1223	-45.4279	-211.088	-23.1528	-47.8755	-229.642	-34.7401	-34.0618	-214.596	-34.953	-7.21047	-222.324	-6.37453	-40.312	-238.434	-26.8801	-21.4311	-219.77	-24.3815	1.92109	-227.501	6.76597	-37.3203	-243.866	-12.3308	-25.6432	-225.988	-14.415	0.551052	-224.649	34.7666	-29.6839	-235.254	41.2951	-42.5414	-240.414	49.383	-51.2684	-189.99	25.7824	-7.68694	-180.327	25.3746	15.6871	-170.333	0.943556	-5.63198	
121	1.00833	-173.871	-28.029	7.34378	-176.435	-39.4854	-11.5326	-174.158	-45.6027	-34.8814	-171.324	-54.8512	-54.3889	-208.591	-19.4739	-50.5764	-229.023	-31.2931	-39.4453	-214.488	-28.7656	-10.7327	-222.771	-7.32513	-44.8841	-237.157	-24.9543	-31.333	-222.254	-23.037	-1.6438	-227.721	11.3127	-39.6395	-244.23	-7.58841	-27.8526	-228.281	-12.7053	-4.77877	-219.507	37.4847	-28.3306	-228.944	44.1982	-41.2957	-235.259	53.4213	-54.6699	-188.464	22.4991	-11.7856	-179.321	22.6428	17.3241	-168.928	0.630315	-3.09594	
122	1.01667	-178.839	-26.8603	8.93562	-175.516	-39.1023	-15.1256	-170.602	-48.1916	-38.5273	-167.551	-54.2918	-54.4641	-206.742	-20.5295	-55.112	-227.053	-30.7642	-45.5638	-217.904	-34.2306	-17.2679	-218.201	-5.35349	-49.5971	-236.675	-22.9935	-35.0563	-219.505	-26.1327	-6.97125	-226.033	11.0424	-45.1614	-242.738	-7.22979	-33.012	-229.664	-11.8584	-10.0622	-217.461	40.5244	-35.2271	-223.15	44.0863	-45.9081	-227.655	52.0786	-63.0235	-187.995	23.6371	-13.4437	-178.005	20.7095	15.7372	-169.697	-3.97383	-3.09757	
